<svg width="1440" height="1006" viewBox="0 0 1440 1006" fill="none" xmlns="http://www.w3.org/2000/svg">
<rect width="1440" height="1006" fill="url(#paint0_linear_41_2)"/>
<path d="M1178 38C1178 25.8497 1187.85 16 1200 16H1266C1278.15 16 1288 25.8497 1288 38V38C1288 50.1503 1278.15 60 1266 60H1200C1187.85 60 1178 50.1503 1178 38V38Z" fill="url(#paint1_linear_41_2)"/>
<circle cx="1266.5" cy="38.5" r="16.5" fill="black"/>
<g clip-path="url(#clip0_41_2)">
<path d="M1270.11 40.2851H1262.89C1261.72 40.2865 1260.59 40.7531 1259.76 41.5825C1258.94 42.4119 1258.47 43.5364 1258.47 44.7094V49.2105H1274.53V44.7094C1274.53 43.5364 1274.07 42.4119 1273.24 41.5825C1272.41 40.7531 1271.28 40.2865 1270.11 40.2851Z" fill="white"/>
<path d="M1266.5 38.5C1269.46 38.5 1271.86 36.1024 1271.86 33.1447C1271.86 30.1871 1269.46 27.7895 1266.5 27.7895C1263.54 27.7895 1261.14 30.1871 1261.14 33.1447C1261.14 36.1024 1263.54 38.5 1266.5 38.5Z" fill="white"/>
</g>
<rect x="125" y="115" width="811" height="259" rx="38" fill="#DFDFDF"/>
<rect x="952" y="115" width="345" height="259" rx="38" fill="#DFDFDF"/>
<rect x="165" y="681" width="360" height="218" rx="38" fill="#DFDFDF"/>
<rect x="540" y="681" width="360" height="218" rx="38" fill="#DFDFDF"/>
<rect x="915" y="681" width="360" height="218" rx="38" fill="#DFDFDF"/>
<rect x="365" y="473" width="709" height="53" rx="26.5" fill="#C7D7FF" fill-opacity="0.7"/>
<rect x="365" y="536" width="87" height="35" rx="17.5" fill="#3B43FF"/>
<g clip-path="url(#clip1_41_2)">
<path d="M385.763 553.5L380.256 548.388C379.914 548.07 379.914 547.556 380.256 547.238C380.598 546.921 381.152 546.921 381.494 547.238L387 552.351L392.506 547.238C392.847 546.921 393.402 546.921 393.743 547.238C394.085 547.556 394.085 548.07 393.743 548.388L388.237 553.5L393.743 558.613C394.085 558.93 394.085 559.445 393.743 559.762C393.402 560.08 392.847 560.08 392.506 559.762L387 554.649L381.494 559.762C381.152 560.08 380.598 560.08 380.256 559.762C379.914 559.445 379.914 558.93 380.256 558.613L385.763 553.5Z" fill="white"/>
</g>
<path d="M418.898 554.63H417.237V545.735H418.898V554.63ZM421.192 550.833H418.433V549.462H421.192V550.833ZM414.557 546.729C414.557 548.064 414.264 549.269 413.678 550.341C413.098 551.413 412.251 552.33 411.138 553.092C410.03 553.848 408.691 554.439 407.121 554.867L406.453 553.531C407.801 553.174 408.946 552.699 409.89 552.107C410.839 551.51 411.56 550.821 412.052 550.042C412.544 549.257 412.79 548.407 412.79 547.493V546.729H414.557ZM413.739 548.082H407.183V546.729H413.739V548.082ZM418.898 561.283H408.817V555.315H418.898V561.283ZM410.47 559.947H417.246V556.687H410.47V559.947ZM427.239 550.385C427.239 551.498 427.046 552.6 426.659 553.689C426.278 554.773 425.748 555.737 425.068 556.581C424.389 557.425 423.627 558.058 422.783 558.479L421.781 557.17C422.566 556.789 423.272 556.235 423.899 555.509C424.526 554.776 425.019 553.962 425.376 553.065C425.739 552.163 425.921 551.27 425.921 550.385V548.047H427.239V550.385ZM427.573 550.385C427.573 551.217 427.74 552.055 428.074 552.898C428.414 553.736 428.889 554.501 429.498 555.192C430.113 555.884 430.811 556.411 431.59 556.774L430.649 558.084C429.794 557.68 429.032 557.076 428.364 556.273C427.696 555.465 427.175 554.548 426.8 553.522C426.431 552.491 426.246 551.445 426.246 550.385V548.047H427.573V550.385ZM430.992 548.706H422.37V547.335H430.992V548.706ZM434.35 561.485H432.688V545.735H434.35V561.485ZM436.89 553.399H433.972V551.993H436.89V553.399Z" fill="white"/>
<rect x="457" y="536" width="102" height="35" rx="17.5" fill="#3B43FF"/>
<g clip-path="url(#clip2_41_2)">
<path d="M477.763 553.5L472.256 548.388C471.914 548.07 471.914 547.556 472.256 547.238C472.598 546.921 473.152 546.921 473.494 547.238L479 552.351L484.506 547.238C484.847 546.921 485.402 546.921 485.743 547.238C486.085 547.556 486.085 548.07 485.743 548.388L480.237 553.5L485.743 558.613C486.085 558.93 486.085 559.445 485.743 559.762C485.402 560.08 484.847 560.08 484.506 559.762L479 554.649L473.494 559.762C473.152 560.08 472.598 560.08 472.256 559.762C471.914 559.445 471.914 558.93 472.256 558.613L477.763 553.5Z" fill="white"/>
</g>
<path d="M510.814 561.529H509.153V545.735H510.814V561.529ZM499.986 556.353C501.445 556.358 502.781 556.32 503.994 556.238C505.213 556.156 506.47 556.013 507.765 555.808L507.932 557.179C506.619 557.396 505.348 557.545 504.117 557.627C502.887 557.703 501.51 557.741 499.986 557.741H498.642V556.353H499.986ZM505.998 552.916H500.347V556.88H498.642V551.58H504.311V548.521H498.615V547.159H505.998V552.916ZM517.046 546.711C517.731 546.711 518.35 546.872 518.9 547.194C519.451 547.511 519.882 547.956 520.192 548.53C520.509 549.099 520.667 549.749 520.667 550.481C520.667 551.208 520.509 551.853 520.192 552.415C519.882 552.978 519.451 553.417 518.9 553.733C518.35 554.05 517.731 554.208 517.046 554.208C516.349 554.208 515.725 554.05 515.174 553.733C514.629 553.417 514.204 552.978 513.899 552.415C513.595 551.853 513.442 551.208 513.442 550.481C513.442 549.749 513.595 549.099 513.899 548.53C514.21 547.956 514.638 547.511 515.183 547.194C515.728 546.872 516.349 546.711 517.046 546.711ZM517.046 548.152C516.647 548.152 516.287 548.252 515.965 548.451C515.643 548.645 515.391 548.917 515.209 549.269C515.033 549.614 514.945 550.019 514.945 550.481C514.945 550.927 515.033 551.328 515.209 551.686C515.391 552.043 515.643 552.321 515.965 552.521C516.287 552.72 516.647 552.819 517.046 552.819C517.45 552.819 517.811 552.72 518.127 552.521C518.449 552.321 518.698 552.043 518.874 551.686C519.056 551.328 519.146 550.927 519.146 550.481C519.146 550.019 519.056 549.611 518.874 549.26C518.698 548.902 518.452 548.63 518.136 548.442C517.819 548.249 517.456 548.152 517.046 548.152ZM526.731 555.14H525.141V545.753H526.731V555.14ZM525.624 551.088H522.759V549.734H525.624V551.088ZM523.321 555.043H521.757V546.043H523.321V555.043ZM526.731 561.485H525.088V557.293H516.026V555.957H526.731V561.485ZM541.646 555.474H530.66V554.129H541.646V555.474ZM543.272 559.508H528.858V558.137H543.272V559.508ZM541.488 548.416H532.365V554.516H530.66V547.027H541.488V548.416ZM541.137 551.844H531.847V550.525H541.137V551.844Z" fill="white"/>
<path d="M479.192 40.752H480.312C480.312 44.406 479.052 47.766 474.6 50.006L473.942 49.11C477.848 47.15 479.192 44.336 479.192 40.878V40.752ZM474.628 40.752H479.892V41.69H474.628V40.752ZM479.122 43.888V44.77L474.18 45.232L473.984 44.224L479.122 43.888ZM483.182 39.436H484.344V52.092H483.182V39.436ZM480.284 44.504H483.742V45.47H480.284V44.504ZM489.719 47.066H490.881V52.19H489.719V47.066ZM494.213 47.066H495.375V52.19H494.213V47.066ZM486.807 46.758H498.287V47.71H486.807V46.758ZM488.263 40.122H496.803V45.05H488.263V40.122ZM495.669 41.046H489.411V44.126H495.669V41.046ZM508.898 39.436H510.06V52.092H508.898V39.436ZM500.498 40.668H501.646V48.508H500.498V40.668ZM500.498 47.822H501.534C503.452 47.822 505.454 47.682 507.596 47.234L507.736 48.228C505.538 48.676 503.536 48.83 501.534 48.83H500.498V47.822ZM513.377 48.088H514.385C516.751 48.088 518.403 48.018 520.349 47.696L520.461 48.634C518.473 48.984 516.793 49.054 514.385 49.054H513.377V48.088ZM513.377 40.584H519.509V41.55H514.525V48.424H513.377V40.584ZM514.245 44.126H519.047V45.064H514.245V44.126ZM521.791 39.436H522.953V52.092H521.791V39.436Z" fill="white"/>
<path d="M410.807 45.904H422.273V46.856H410.807V45.904ZM416.043 46.492H417.205V49.404H416.043V46.492ZM412.277 40.024H420.789V44.476H412.277V40.024ZM419.641 40.962H413.411V43.538H419.641V40.962ZM412.263 50.86H420.999V51.812H412.263V50.86ZM412.263 48.186H413.411V51.196H412.263V48.186ZM433.318 39.436H434.438V52.092H433.318V39.436ZM428.712 43.972H431.134V44.938H428.712V43.972ZM430.784 39.73H431.876V51.448H430.784V39.73ZM426.276 41.396H427.172V43.006C427.172 45.778 426.108 48.396 424.246 49.572L423.532 48.704C425.296 47.64 426.276 45.33 426.276 43.006V41.396ZM426.514 41.396H427.41V43.006C427.41 45.204 428.362 47.402 430.098 48.41L429.384 49.264C427.536 48.144 426.514 45.652 426.514 43.006V41.396ZM423.882 40.906H429.664V41.872H423.882V40.906Z" fill="white"/>
<path d="M328.382 49.572H339.848V50.538H328.382V49.572ZM333.506 46.856H334.668V49.978H333.506V46.856ZM329.768 40.374H338.434V44.21H330.958V46.744H329.81V43.272H337.286V41.312H329.768V40.374ZM329.81 46.254H338.728V47.206H329.81V46.254ZM342.703 45.498H351.397V46.45H342.703V45.498ZM341.261 49.418H352.727V50.384H341.261V49.418ZM342.703 40.598H351.271V41.564H343.865V45.918H342.703V40.598ZM363.687 39.45H364.793V46.324H363.687V39.45ZM361.699 42.348H364.079V43.3H361.699V42.348ZM360.971 39.688H362.077V46.24H360.971V39.688ZM354.699 40.332H359.585V45.666H354.699V40.332ZM358.493 41.242H355.777V44.742H358.493V41.242ZM356.505 46.912H357.653V48.41H363.673V46.912H364.793V51.924H356.505V46.912ZM357.653 49.334V50.972H363.673V49.334H357.653Z" fill="white"/>
<path d="M267.473 39.436H268.635V47.01H267.473V39.436ZM268.313 42.698H270.511V43.678H268.313V42.698ZM263.973 40.36H265.219C265.219 43.608 262.965 45.974 259.311 47.052L258.821 46.114C262.041 45.162 263.973 43.258 263.973 40.892V40.36ZM259.381 40.36H264.631V41.326H259.381V40.36ZM264.673 47.164C267.179 47.164 268.775 48.088 268.775 49.614C268.775 51.14 267.179 52.064 264.673 52.064C262.153 52.064 260.543 51.14 260.543 49.614C260.543 48.088 262.153 47.164 264.673 47.164ZM264.673 48.088C262.853 48.088 261.691 48.662 261.691 49.614C261.691 50.566 262.853 51.14 264.673 51.14C266.493 51.14 267.655 50.566 267.655 49.614C267.655 48.662 266.493 48.088 264.673 48.088ZM275.802 40.346C277.776 40.346 279.19 41.564 279.19 43.328C279.19 45.106 277.776 46.324 275.802 46.324C273.828 46.324 272.4 45.106 272.4 43.328C272.4 41.564 273.828 40.346 275.802 40.346ZM275.802 41.354C274.486 41.354 273.534 42.152 273.534 43.328C273.534 44.504 274.486 45.316 275.802 45.316C277.104 45.316 278.056 44.504 278.056 43.328C278.056 42.152 277.104 41.354 275.802 41.354ZM280.842 39.422H282.004V52.106H280.842V39.422ZM271.924 49.334L271.756 48.368C274.066 48.368 277.258 48.354 280.016 47.92L280.114 48.774C277.272 49.32 274.178 49.334 271.924 49.334Z" fill="white"/>
<path d="M404.312 494.144H405.576V497.68H408.6V494.144H409.832V503.632H404.312V494.144ZM405.576 498.752V502.544H408.6V498.752H405.576ZM414.808 492.784H416.088V507.248H414.808V492.784ZM412.488 498.512H415.272V499.6H412.488V498.512ZM411.608 493.088H412.872V506.528H411.608V493.088ZM418.503 501.072H431.623V502.16H418.503V501.072ZM424.359 501.744H425.671V507.248H424.359V501.744ZM425.031 493.36C428.055 493.36 430.087 494.592 430.087 496.528C430.087 498.464 428.055 499.696 425.031 499.696C422.023 499.696 419.975 498.464 419.975 496.528C419.975 494.592 422.023 493.36 425.031 493.36ZM425.031 494.432C422.823 494.432 421.319 495.248 421.319 496.528C421.319 497.808 422.823 498.624 425.031 498.624C427.239 498.624 428.727 497.808 428.727 496.528C428.727 495.248 427.239 494.432 425.031 494.432ZM434.614 494.224H443.926V495.328H434.614V494.224ZM433.238 504.128H446.31V505.232H433.238V504.128ZM438.31 498.96H439.638V504.672H438.31V498.96ZM443.43 494.224H444.742V495.664C444.742 497.456 444.742 499.44 444.214 502.368L442.886 502.192C443.43 499.424 443.43 497.392 443.43 495.664V494.224ZM462.968 492.8H464.312V500.816H462.968V492.8ZM456.216 493.312H457.32V494.72C457.32 497.392 455.656 499.648 453.208 500.528L452.536 499.488C454.712 498.72 456.216 496.8 456.216 494.72V493.312ZM456.456 493.312H457.544V494.72C457.544 496.736 459.064 498.512 461.208 499.216L460.552 500.272C458.12 499.44 456.456 497.312 456.456 494.72V493.312ZM454.744 501.68H464.392V502.768H454.744V501.68ZM454.6 505.984H464.552V507.056H454.6V505.984ZM456.728 502.144H458.024V506.608H456.728V502.144ZM461.112 502.144H462.424V506.608H461.112V502.144ZM467.159 500.384H480.231V501.472H467.159V500.384ZM468.855 505.84H478.791V506.928H468.855V505.84ZM468.855 502.736H470.183V506.176H468.855V502.736ZM473.703 493.264C476.791 493.264 478.791 494.352 478.791 496.16C478.791 497.952 476.791 499.04 473.703 499.04C470.599 499.04 468.615 497.952 468.615 496.16C468.615 494.352 470.599 493.264 473.703 493.264ZM473.703 494.352C471.431 494.352 469.975 495.024 469.975 496.16C469.975 497.296 471.431 497.968 473.703 497.968C475.975 497.968 477.431 497.296 477.431 496.16C477.431 495.024 475.975 494.352 473.703 494.352ZM490.218 494.848H491.29V497.2C491.29 500.256 489.45 503.328 487.146 504.464L486.378 503.408C488.474 502.416 490.218 499.696 490.218 497.2V494.848ZM490.474 494.848H491.546V497.2C491.546 499.648 493.29 502.144 495.418 503.056L494.666 504.112C492.33 503.024 490.474 500.208 490.474 497.2V494.848ZM486.858 494.256H494.938V495.376H486.858V494.256ZM496.89 492.784H498.218V507.248H496.89V492.784ZM504.873 493.472H505.977V494.88C505.977 497.616 504.345 499.968 501.897 500.896L501.225 499.84C503.417 499.04 504.873 497.04 504.873 494.88V493.472ZM505.113 493.472H506.201V494.88C506.201 496.96 507.689 498.832 509.833 499.584L509.161 500.624C506.745 499.744 505.113 497.536 505.113 494.88V493.472ZM503.305 502.224H512.969V507.248H511.625V503.312H503.305V502.224ZM511.625 492.784H512.969V501.488H511.625V492.784ZM522.359 493.024C525.543 493.024 527.447 493.92 527.447 495.536C527.447 497.152 525.543 498.048 522.359 498.048C519.159 498.048 517.271 497.152 517.271 495.536C517.271 493.92 519.159 493.024 522.359 493.024ZM522.359 494.032C519.991 494.032 518.631 494.576 518.631 495.536C518.631 496.496 519.991 497.04 522.359 497.04C524.711 497.04 526.071 496.496 526.071 495.536C526.071 494.576 524.711 494.032 522.359 494.032ZM515.815 499.008H528.887V500.08H515.815V499.008ZM517.399 501.312H527.223V504.576H518.743V506.336H517.431V503.616H525.911V502.336H517.399V501.312ZM517.431 506.048H527.655V507.088H517.431V506.048ZM541.066 493.712H542.458C542.458 497.36 539.898 499.968 535.738 501.136L535.194 500.096C538.858 499.056 541.066 496.96 541.066 494.272V493.712ZM535.946 493.712H541.962V494.784H535.946V493.712ZM545.61 492.784H546.938V501.04H545.61V492.784ZM542.474 496.496H545.866V497.6H542.474V496.496ZM537.61 501.648H546.938V507.056H537.61V501.648ZM545.642 502.72H538.922V505.968H545.642V502.72ZM552.793 493.648H553.849V495.584C553.849 497.76 552.617 500.048 550.489 501.024L549.769 499.984C551.657 499.136 552.793 497.232 552.793 495.584V493.648ZM553.001 493.648H554.057V495.584C554.057 497.232 555.129 498.88 556.985 499.632L556.281 500.656C554.185 499.776 553.001 497.744 553.001 495.584V493.648ZM560.681 492.8H561.945V501.536H560.681V492.8ZM558.345 496.544H561.081V497.648H558.345V496.544ZM557.577 493.04H558.841V501.456H557.577V493.04ZM552.249 502.32H561.945V507.248H560.633V503.408H552.249V502.32ZM564.456 495.248H571.624V496.336H564.456V495.248ZM568.04 497.296C569.848 497.296 571.16 498.656 571.16 500.608C571.16 502.544 569.848 503.904 568.04 503.904C566.248 503.904 564.936 502.544 564.936 500.608C564.936 498.656 566.248 497.296 568.04 497.296ZM568.04 498.432C566.936 498.432 566.136 499.328 566.136 500.608C566.136 501.888 566.936 502.784 568.04 502.784C569.16 502.784 569.976 501.888 569.976 500.608C569.976 499.328 569.16 498.432 568.04 498.432ZM575.448 492.784H576.728V507.248H575.448V492.784ZM573.144 498.864H575.88V499.968H573.144V498.864ZM572.36 493.104H573.608V506.544H572.36V493.104ZM567.4 493.2H568.712V495.92H567.4V493.2ZM584.998 494.208H586.15V494.816C586.15 497.408 583.398 499.312 580.486 499.808L579.974 498.752C582.518 498.384 584.998 496.72 584.998 494.816V494.208ZM585.334 494.208H586.47V494.816C586.47 496.72 588.966 498.384 591.494 498.752L590.998 499.808C588.07 499.312 585.334 497.408 585.334 494.816V494.208ZM585.046 501.728H586.358V507.248H585.046V501.728ZM579.206 501.024H592.278V502.112H579.206V501.024ZM580.422 493.68H591.014V494.752H580.422V493.68ZM599.621 497.952H602.389V499.056H599.621V497.952ZM596.917 494.144H597.957V496.896C597.957 499.92 596.693 502.848 594.581 504.144L593.749 503.136C595.733 501.968 596.917 499.376 596.917 496.896V494.144ZM597.173 494.144H598.197V496.848C598.197 499.168 599.285 501.632 601.189 502.784L600.421 503.824C598.341 502.544 597.173 499.664 597.173 496.848V494.144ZM604.933 492.784H606.213V507.248H604.933V492.784ZM602.005 493.088H603.253V506.528H602.005V493.088ZM611.844 500.224H613.156V504.56H611.844V500.224ZM617.188 500.224H618.516V504.56H617.188V500.224ZM608.644 504.304H621.748V505.408H608.644V504.304ZM615.172 493.696C618.228 493.696 620.42 495.152 620.42 497.424C620.42 499.68 618.228 501.136 615.172 501.136C612.1 501.136 609.908 499.68 609.908 497.424C609.908 495.152 612.1 493.696 615.172 493.696ZM615.172 494.752C612.852 494.752 611.188 495.808 611.188 497.424C611.188 499.024 612.852 500.08 615.172 500.08C617.492 500.08 619.14 499.024 619.14 497.424C619.14 495.808 617.492 494.752 615.172 494.752ZM625.562 494.364L625.449 502.727H624.131L624.017 494.364H625.562ZM624.79 506.091C624.509 506.091 624.269 505.991 624.068 505.79C623.867 505.589 623.767 505.348 623.767 505.068C623.767 504.788 623.867 504.547 624.068 504.347C624.269 504.146 624.509 504.045 624.79 504.045C625.07 504.045 625.311 504.146 625.511 504.347C625.712 504.547 625.812 504.788 625.812 505.068C625.812 505.254 625.765 505.424 625.67 505.58C625.58 505.735 625.456 505.86 625.301 505.955C625.15 506.045 624.979 506.091 624.79 506.091Z" fill="white"/>
<ellipse cx="175.574" cy="39.9558" rx="10.9558" ry="10.9558" fill="url(#paint2_linear_41_2)"/>
<path d="M161.934 35.1086H170.815V60.624H162.38V55.8076H162.099C161.535 57.4209 160.564 58.6818 159.185 59.5903C157.807 60.4987 156.17 60.953 154.275 60.953C152.52 60.953 150.97 60.5535 149.623 59.7547C148.291 58.9402 147.258 57.8046 146.521 56.348C145.785 54.8913 145.417 53.231 145.417 51.3671V35.1086H154.298V49.5345C154.298 50.3959 154.439 51.1399 154.721 51.7665C155.019 52.393 155.449 52.8786 156.013 53.2231C156.577 53.5521 157.243 53.7165 158.01 53.7165C158.809 53.7165 159.506 53.5521 160.101 53.2231C160.697 52.8786 161.151 52.3852 161.464 51.743C161.777 51.0851 161.934 50.3333 161.934 49.4875V35.1086Z" fill="black"/>
<path d="M146.279 41.5463H125V35.1087H146.279V41.5463ZM137.147 29V52.4479C137.147 52.8395 137.209 53.1605 137.335 53.4112C137.476 53.6618 137.679 53.8497 137.946 53.975C138.212 54.0847 138.557 54.1473 138.979 54.163C139.559 54.1943 140.538 54.1552 141.916 54.0455V60.6711C140.71 60.8904 139.308 61 137.711 61C135.628 61 133.881 60.7259 132.471 60.1777C131.077 59.6295 130.02 58.7915 129.3 57.6637C128.579 56.5203 128.234 55.0793 128.266 53.3407V29H137.147Z" fill="black"/>
<path d="M1199.79 44.1591C1199.03 44.1591 1198.35 44.017 1197.76 43.733C1197.16 43.4451 1196.68 43.0511 1196.33 42.5511C1195.98 42.0511 1195.8 41.4792 1195.77 40.8352H1197.82C1197.86 41.3125 1198.06 41.7027 1198.44 42.0057C1198.81 42.3049 1199.26 42.4545 1199.79 42.4545C1200.2 42.4545 1200.57 42.3598 1200.89 42.1705C1201.21 41.9811 1201.47 41.7178 1201.65 41.3807C1201.84 41.0436 1201.93 40.6591 1201.93 40.2273C1201.93 39.7879 1201.84 39.3977 1201.65 39.0568C1201.46 38.7159 1201.2 38.4489 1200.87 38.2557C1200.54 38.0587 1200.16 37.9602 1199.73 37.9602C1199.39 37.9564 1199.04 38.0208 1198.71 38.1534C1198.37 38.286 1198.1 38.4602 1197.9 38.6761L1196 38.3636L1196.61 32.3636H1203.36V34.125H1198.35L1198.02 37.2102H1198.09C1198.3 36.9564 1198.61 36.7462 1199 36.5795C1199.39 36.4091 1199.83 36.3239 1200.3 36.3239C1201 36.3239 1201.63 36.4905 1202.18 36.8239C1202.74 37.1534 1203.17 37.608 1203.49 38.1875C1203.81 38.767 1203.97 39.4299 1203.97 40.1761C1203.97 40.9451 1203.79 41.6307 1203.43 42.233C1203.08 42.8314 1202.59 43.303 1201.96 43.6477C1201.34 43.9886 1200.61 44.1591 1199.79 44.1591ZM1210.17 44.2216C1209.24 44.2216 1208.43 43.9848 1207.76 43.5114C1207.1 43.0341 1206.58 42.3466 1206.22 41.4489C1205.87 40.5473 1205.69 39.4621 1205.69 38.1932C1205.69 36.9242 1205.87 35.8447 1206.23 34.9545C1206.59 34.0606 1207.1 33.3788 1207.77 32.9091C1208.44 32.4394 1209.24 32.2045 1210.17 32.2045C1211.1 32.2045 1211.9 32.4394 1212.57 32.9091C1213.25 33.3788 1213.76 34.0606 1214.11 34.9545C1214.47 35.8485 1214.65 36.928 1214.65 38.1932C1214.65 39.4659 1214.47 40.553 1214.11 41.4545C1213.76 42.3523 1213.25 43.0379 1212.57 43.5114C1211.91 43.9848 1211.11 44.2216 1210.17 44.2216ZM1210.17 42.4432C1210.9 42.4432 1211.47 42.0852 1211.89 41.3693C1212.32 40.6496 1212.53 39.5909 1212.53 38.1932C1212.53 37.2689 1212.43 36.4924 1212.24 35.8636C1212.05 35.2348 1211.77 34.7614 1211.42 34.4432C1211.07 34.1212 1210.65 33.9602 1210.17 33.9602C1209.45 33.9602 1208.88 34.3201 1208.46 35.0398C1208.03 35.7557 1207.82 36.8068 1207.82 38.1932C1207.82 39.1212 1207.91 39.9015 1208.1 40.5341C1208.29 41.1667 1208.56 41.6439 1208.92 41.9659C1209.27 42.2841 1209.69 42.4432 1210.17 42.4432ZM1223.77 44.1534C1223.09 44.1534 1222.47 43.9773 1221.93 43.625C1221.39 43.2727 1220.96 42.7614 1220.65 42.0909C1220.33 41.4205 1220.18 40.6061 1220.18 39.6477C1220.18 38.678 1220.33 37.8598 1220.65 37.1932C1220.97 36.5227 1221.41 36.017 1221.95 35.6761C1222.5 35.3314 1223.11 35.1591 1223.78 35.1591C1224.29 35.1591 1224.71 35.2462 1225.04 35.4205C1225.37 35.5909 1225.63 35.7973 1225.82 36.0398C1226.02 36.2784 1226.17 36.5038 1226.27 36.7159H1226.36V32.3636H1228.42V44H1226.4V42.625H1226.27C1226.17 42.8371 1226.01 43.0625 1225.81 43.3011C1225.61 43.536 1225.35 43.7367 1225.02 43.9034C1224.69 44.0701 1224.27 44.1534 1223.77 44.1534ZM1224.35 42.4659C1224.78 42.4659 1225.15 42.3485 1225.46 42.1136C1225.77 41.875 1226 41.5436 1226.16 41.1193C1226.32 40.6951 1226.4 40.2008 1226.4 39.6364C1226.4 39.072 1226.32 38.5814 1226.16 38.1648C1226 37.7481 1225.77 37.4242 1225.47 37.1932C1225.16 36.9621 1224.79 36.8466 1224.35 36.8466C1223.89 36.8466 1223.5 36.9659 1223.2 37.2045C1222.89 37.4432 1222.66 37.7727 1222.5 38.1932C1222.35 38.6136 1222.27 39.0947 1222.27 39.6364C1222.27 40.1818 1222.35 40.6686 1222.5 41.0966C1222.66 41.5208 1222.9 41.8561 1223.2 42.1023C1223.51 42.3447 1223.9 42.4659 1224.35 42.4659ZM1236.17 40.3295V35.2727H1238.23V44H1236.24V42.4489H1236.15C1235.95 42.9375 1235.62 43.3371 1235.17 43.6477C1234.73 43.9583 1234.18 44.1136 1233.52 44.1136C1232.95 44.1136 1232.44 43.9867 1232 43.733C1231.57 43.4754 1231.23 43.1023 1230.98 42.6136C1230.73 42.1212 1230.61 41.5265 1230.61 40.8295V35.2727H1232.67V40.5114C1232.67 41.0644 1232.82 41.5038 1233.12 41.8295C1233.43 42.1553 1233.82 42.3182 1234.32 42.3182C1234.62 42.3182 1234.91 42.2443 1235.2 42.0966C1235.48 41.9489 1235.71 41.7292 1235.9 41.4375C1236.08 41.142 1236.17 40.7727 1236.17 40.3295Z" fill="white"/>
<circle cx="175.574" cy="39.9558" r="10.9558" fill="url(#paint3_linear_41_2)"/>
<path d="M161.934 35.1086H170.815V60.6241H162.38V55.8076H162.099C161.535 57.4209 160.564 58.6818 159.185 59.5903C157.807 60.4988 156.17 60.953 154.275 60.953C152.52 60.953 150.97 60.5536 149.623 59.7547C148.291 58.9403 147.258 57.8047 146.521 56.348C145.785 54.8913 145.417 53.231 145.417 51.3671V35.1086H154.298V49.5345C154.298 50.396 154.439 51.14 154.721 51.7665C155.019 52.393 155.449 52.8786 156.013 53.2232C156.577 53.5521 157.243 53.7166 158.01 53.7166C158.809 53.7166 159.506 53.5521 160.101 53.2232C160.697 52.8786 161.151 52.3852 161.464 51.743C161.777 51.0851 161.934 50.3333 161.934 49.4875V35.1086Z" fill="white"/>
<path d="M146.279 41.5463H125V35.1087H146.279V41.5463ZM137.147 29V52.4479C137.147 52.8395 137.209 53.1605 137.335 53.4112C137.476 53.6618 137.679 53.8497 137.946 53.975C138.212 54.0847 138.557 54.1473 138.979 54.163C139.559 54.1943 140.538 54.1552 141.916 54.0455V60.6711C140.71 60.8904 139.308 61 137.711 61C135.628 61 133.881 60.7259 132.471 60.1777C131.077 59.6295 130.02 58.7915 129.3 57.6637C128.579 56.5203 128.234 55.0793 128.266 53.3407V29H137.147Z" fill="white"/>
<defs>
<linearGradient id="paint0_linear_41_2" x1="720" y1="0" x2="720" y2="1006" gradientUnits="userSpaceOnUse">
<stop stop-color="#1D1D1D"/>
<stop offset="1" stop-color="#1D1D1D" stop-opacity="0"/>
<stop offset="1" stop-opacity="0"/>
</linearGradient>
<linearGradient id="paint1_linear_41_2" x1="1262.22" y1="15.0638" x2="1200.09" y2="51.0502" gradientUnits="userSpaceOnUse">
<stop stop-color="#4F32FF"/>
<stop offset="1" stop-color="#1F83FA"/>
</linearGradient>
<linearGradient id="paint2_linear_41_2" x1="175.574" y1="29" x2="175.574" y2="50.9116" gradientUnits="userSpaceOnUse">
<stop stop-color="#6100FF"/>
<stop offset="1" stop-color="#287AF4"/>
</linearGradient>
<linearGradient id="paint3_linear_41_2" x1="175.574" y1="29" x2="175.574" y2="50.9116" gradientUnits="userSpaceOnUse">
<stop stop-color="#6100FF"/>
<stop offset="1" stop-color="#287AF4"/>
</linearGradient>
<clipPath id="clip0_41_2">
<rect width="21.4211" height="21.4211" fill="white" transform="translate(1255.79 27.7895)"/>
</clipPath>
<clipPath id="clip1_41_2">
<rect width="14" height="13" fill="white" transform="matrix(-1 0 0 1 394 547)"/>
</clipPath>
<clipPath id="clip2_41_2">
<rect width="14" height="13" fill="white" transform="matrix(-1 0 0 1 486 547)"/>
</clipPath>
</defs>
</svg>
