<svg width="333" height="173" viewBox="0 0 333 173" fill="none" xmlns="http://www.w3.org/2000/svg">
<circle cx="273.414" cy="59.2298" r="59.2298" fill="url(#paint0_linear_1_74)"/>
<path d="M199.675 33.0248H247.688V170.967H202.088V144.929H200.564C197.515 153.651 192.265 160.467 184.814 165.379C177.362 170.29 168.513 172.746 158.267 172.746C148.782 172.746 140.399 170.586 133.117 166.268C125.919 161.864 120.33 155.725 116.35 147.85C112.37 139.975 110.38 130.999 110.38 120.922V33.0248H158.394V111.014C158.394 115.672 159.156 119.694 160.68 123.081C162.289 126.468 164.618 129.094 167.666 130.956C170.714 132.735 174.313 133.624 178.463 133.624C182.781 133.624 186.549 132.735 189.767 130.956C192.985 129.094 195.441 126.426 197.134 122.954C198.828 119.398 199.675 115.333 199.675 110.76V33.0248Z" fill="white"/>
<path d="M115.037 67.8282H0V33.025H115.037V67.8282ZM65.6689 0V126.765C65.6689 128.882 66.0076 130.618 66.685 131.973C67.4471 133.328 68.548 134.344 69.9875 135.021C71.4271 135.614 73.29 135.953 75.5764 136.037C78.7095 136.207 84.002 135.995 91.4537 135.402V171.222C84.9334 172.407 77.3546 173 68.7173 173C57.455 173 48.0132 171.518 40.3921 168.554C32.8556 165.591 27.1397 161.06 23.2445 154.963C19.3492 148.782 17.4863 140.991 17.6557 131.592V0H65.6689Z" fill="white"/>
<defs>
<linearGradient id="paint0_linear_1_74" x1="273.414" y1="0" x2="273.414" y2="118.46" gradientUnits="userSpaceOnUse">
<stop stop-color="#6100FF"/>
<stop offset="1" stop-color="#287AF4"/>
</linearGradient>
</defs>
</svg>
